<svg xmlns="http://www.w3.org/2000/svg" width="192.034" height="295" viewBox="0 -0.625 192.034 295">
  <path fill="#FFF"
    d="M186.994 54.326c-36.742 7.556-57.268.242-91.44-52.9-34.278 53.14-55.008 60.543-91.607 53.14-8.965 67.72-2.474 209.257 91.607 237.604 94.66-28.403 99.575-170.17 91.44-237.844z" />
  <path fill="#007CC3"
    d="M95.555 283.9c66.658-20.077 79.13-104.87 83.674-127.55H13.147c2.964 22.68 16.328 107.473 82.407 127.55z" />
  <path fill="#DA251D"
    d="M10.755 62.742c-4.133 43.45 1.573 88.305 1.573 88.305l166.76-.05s5.643-43.272 1.406-87.466c-38.252 6.225-63.012-9.503-84.94-48.543-22.852 39.162-43.424 54.077-84.8 47.755z" />
  <path fill="#FFF"
    d="M55.26 98.32c8.278 13.108 21.878 20.204 35.38 25.032-4.632 1.676-9.363 3.155-13.7 4.436-1.082-3.647-2.068-7.292-2.266-7.983v-.098c-.394-1.084-1.675-1.676-2.857-1.282-1.282.395-2.17 1.676-1.775 2.76.296 1.183 1.676 1.774 2.957 1.38.295-.098 1.182 2.563 2.265 5.716-10.446 3.156-18.725 5.62-20.302 9.462-1.872 5.42 6.505 7.492 6.11.887-.098-.987-.197-.79.59-1.48 3.156-2.562 8.28-4.532 14.39-6.404 1.183 3.843 2.17 7.786 2.366 8.476.295 1.183 1.675 1.774 2.956 1.38 1.28-.395 2.168-1.676 1.774-2.76-.296-1.182-1.676-1.773-2.957-1.38-.295.1-1.28-2.857-2.365-6.307 5.42-1.577 11.432-3.252 17.64-5.323 6.21 2.07 12.32 3.648 17.643 5.323-1.085 3.45-2.07 6.405-2.366 6.308-1.28-.395-2.66.197-2.957 1.38-.293 1.182.494 2.365 1.775 2.758 1.28.396 2.66-.195 2.957-1.378.196-.79 1.28-4.633 2.364-8.476 6.11 1.873 11.234 3.843 14.39 6.405.788.69.688.493.59 1.48-.394 6.603 7.983 4.532 6.11-.888-1.576-3.942-9.855-6.405-20.3-9.46.983-3.253 1.87-5.815 2.265-5.717 1.28.395 2.66-.197 2.956-1.38.297-1.182-.492-2.365-1.775-2.76-1.28-.394-2.56.198-2.856 1.282v.098c-.195.69-1.182 4.336-2.266 7.983-4.336-1.28-8.97-2.76-13.7-4.436 13.503-4.828 27.103-11.924 35.382-25.032-4.434.886-8.28 1.183-11.63.886-5.814 10.94-16.853 17.643-28.48 22.373-11.828-4.73-22.867-11.434-28.68-22.374-3.254.297-7.197 0-11.63-.886zm10.25-34.494c4.433.1 5.518 10.94 10.347 14.29-1.38.395-2.662.59-3.745.395 3.252 18.825 18.176 26.39 20.105 11.827 1.084-9.954 1.713-19.487 1.614-28.95l-21.325 2.044v-8.18l21.5 2.094C93.81 49.26 93.39 41.256 92.6 33.37h5.727c-.79 7.885-.982 15.73-1.178 23.91l20.49-2.03v8.18l-20.575-2.027c-.1 9.46.133 18.98.867 28.934 1.287 13.7 16.854 6.998 20.104-11.826-1.082.198-2.363.1-3.744-.394 4.828-3.35 5.814-14.19 10.35-14.29-7.527 21.854-8.084 50.86-29.088 38.698C74.672 114.686 72.826 85.68 65.51 63.826zM109.14 239.746c-3.645-3.35-8.673-5.52-14.19-5.52-5.52 0-10.546 2.07-14.192 5.52h28.383z" />
  <path fill="#FFF"
    d="M79.18 239.846l-34.252-.07 15.725-35.31h2.068L49.296 237.06c26.148 2.74 28.576-7.86 41.65-3.425 0 0-7.945 1.23-11.765 6.21zM104.016 235.114c9.043-4.805 17.078 4.147 37.75 3.137l-13.998-33.785h1.48l16.95 35.38h-35.48c-2.972-3.22-6.702-4.73-6.702-4.73z" />
  <path fill="#FFF"
    d="M91.894 226.54c-13.545-6.11-3.515-17.994-.204-21.442l-.092-5.66c-8.013-2.02-16.973 4.406-27.53 4.47l-10.512 29.73c16.13 7.425 22.944-8.638 38.436-1.48l-.098-5.618zM98.2 206.532l-.196 17.545s6.678 2.044 7.457 7.998c16.04-3.575 14.866 6.98 31.95 2.793l-10.965-31.25c-11.674-.585-13.787-4.772-18.783-4.772 0 0-6.215 4.392-9.46 7.686zm-.223 23.31l-.07 3.4s2.582.48 4.295 1.072c-.165-1.37-3.634-4.078-4.225-4.473zM92.583 195.79h4.73l-.1 4.633-4.63 4.042v-8.675zm4.337 37.45c-1.28-.098-2.562-.098-3.843 0-.1-6.897-.197-13.796-.197-20.794.197-.294 3.154-3.547 4.335-4.83l-.295 25.625zM127.18 179.03c-2.22 2.603-5.467 5.404-8.38 6.512 1.772-4.51 1.573-6.496 1.573-6.496l6.807-.017zm-25.922 12.424v2.857H88.642v-2.856c-10.15-1.38-19.218-5.815-25.92-12.42h52.528s-.154 4.822-4.73 10.253c-2.497 1.185-6.112 1.774-9.262 2.167z" />
  <path fill="#FFF"
    d="M89.332 172.235c1.97-.59 3.745-1.478 5.223-2.857 1.182-1.083 2.168-2.364 2.958-3.844.69-1.28.984-1.477 2.365-2.07 2.957-1.083 7.117-.486 9.855 1.775 9.96 8.224 9.266 19.71-5.324 31.24-12.22 8.278-25.92 20.992-12.614 28.778v-3.846c-3.352-3.15-2.76-6.6 1.97-11.825 2.86-3.152 6.702-6.996 11.04-10.248 6.21-4.733 12.713-10.744 14.094-17.842 1.97-10.348-3.71-18.07-12.82-20.998-4.994-1.604-8.47-.29-10.242 1.682-.986 1.084-.69 1.382-2.168 1.775-3.844.887-5.322 2.07-4.73 3.548-1.482 2.662-4.537 5.717.392 4.73zm8.672 56.275c2.463 1.677 4.238 3.55 5.42 5.127 1.283-4.04-1.773-6.408-5.42-8.378v3.25z" />
</svg>
